<?xml version="1.0" encoding="UTF-8" standalone="no"?>
<svg
   viewBox="0 0 576 512"
   version="1.1"
   id="svg1"
   sodipodi:docname="house-solid.svg"
   inkscape:version="1.3.2 (091e20e, 2023-11-25, custom)"
   xmlns:inkscape="http://www.inkscape.org/namespaces/inkscape"
   xmlns:sodipodi="http://sodipodi.sourceforge.net/DTD/sodipodi-0.dtd"
   xmlns:xlink="http://www.w3.org/1999/xlink"
   xmlns="http://www.w3.org/2000/svg"
   xmlns:svg="http://www.w3.org/2000/svg">
  <defs
     id="defs1">
    <color-profile
       name="sRGB-IEC61966-2.1"
       xlink:href="../../../../../../../../../WINDOWS/system32/spool/drivers/color/sRGB%20Color%20Space%20Profile.icm"
       id="color-profile2" />
  </defs>
  <sodipodi:namedview
     id="namedview1"
     pagecolor="#ffffff"
     bordercolor="#000000"
     borderopacity="0"
     inkscape:showpageshadow="2"
     inkscape:pageopacity="0.0"
     inkscape:pagecheckerboard="0"
     inkscape:deskcolor="#d1d1d1"
     inkscape:zoom="1.6347656"
     inkscape:cx="-97.873359"
     inkscape:cy="255.3883"
     inkscape:window-width="1920"
     inkscape:window-height="1051"
     inkscape:window-x="-9"
     inkscape:window-y="-9"
     inkscape:window-maximized="1"
     inkscape:current-layer="svg1" />
  <!--!Font Awesome Free 6.5.2 by @fontawesome - https://fontawesome.com License - https://fontawesome.com/license/free Copyright 2024 Fonticons, Inc.-->
  <path
     d="m 575.80001,254.88828 c 0,18 -15,32.1 -32,32.1 h -32 l 0.7,160.2 c 0,2.7 -0.2,5.4 -0.5,8.1 v 16.1 c 0,22.1 -17.9,40 -40,40 h -16 c -1.1,0 -2.2,0 -3.3,-0.1 -1.4,0.1 -2.8,0.1 -4.2,0.1 h -32.5 -24 c -22.1,0 -40,-17.9 -40,-40 v -24 -64 c 0,-17.7 -14.3,-32 -32,-32 h -64 c -17.7,0 -32,14.3 -32,32 v 64 24 c 0,22.1 -17.9,40 -40,40 h -24 -31.9 c -1.5,0 -3,-0.1 -4.5,-0.2 -1.2,0.1 -2.4,0.2 -3.6,0.2 h -16 c -22.1,0 -40,-17.9 -40,-40 v -112 c 0,-0.9 0,-1.9 0.1,-2.8 v -69.6 h -32.1 c -18,0 -31.999999795826,-14 -31.999999795826,-32.1 0,-9 2.999999995826,-17 9.999999795826,-24 l 256.4,-223.4999883 c 7,-7.00000002 15,-8.00000002 22,-8.00000002 7,0 15,2.00000002 21,7.00000002 l 255.4,224.4999883 c 8,7 12,15 11,24 z"
     id="path1"
     style="fill:#f2f2f2" />
</svg>
